<svg viewBox="0 0 19 24" xmlns="http://www.w3.org/2000/svg"><path d="m17.8576642 5.146098h-16.9635036c-.4854015 0-.8686132-.387896-.8686132-.879232v-3.387633c0-.491336.3832117-.879233.8686132-.879233h16.9635036c.4854015 0 .8686132.387897.8686132.879233v3.387633c0 .491336-.4087592.879232-.8686132.879232zm-11.0109489 13.291933 6.0291971-6.749405c.3065694-.336178.3065694-.879233-.0255474-1.215411l-2.3759124-2.40496c-.3576643-.362037-.9197081-.336177-1.2518249.02586l-8.9927007 10.085318c-.1532847.155159-.229927.362037-.229927.594775v3.930689c0 .491336.3832117.879232.8686131.879232h16.9635037c.4854014 0 .8686131-.387896.8686131-.879232v-3.387633c0-.491336-.3832117-.879233-.8686131-.879233z" fill="#46e18c"/></svg>