<svg id="Layer_1" data-name="Layer 1" xmlns="http://www.w3.org/2000/svg" viewBox="0 0 4000 953.57"><defs><style>.cls-1{fill:#3796f6;}.cls-2{fill:#fff;}</style></defs><path class="cls-1" d="M3944.21,0a55.54,55.54,0,0,0-47.39,84.89l-50.4,49.38a55.36,55.36,0,0,0-80,22.34l-111.64-26.24c0-.11,0-.21,0-.32a55.79,55.79,0,1,0-108.7,16.85L3330.88,274a55.14,55.14,0,0,0-73.91-6.1l-119.1-100a55.14,55.14,0,0,0,6.33-25.29,55.79,55.79,0,1,0-100.49,33.09l-107,124.83a55.14,55.14,0,0,0-25.83-6.62,56.24,56.24,0,1,0,44.71,22.73l107.05-124.84a54.33,54.33,0,0,0,59.33-4.86l119.09,100a55.16,55.16,0,0,0-6.36,25.35,55.79,55.79,0,1,0,111.57,0,55.15,55.15,0,0,0-2.86-16.82l215.23-127.12a55.43,55.43,0,0,0,90.32-13.83l111.62,26.24c0,.12,0,.24,0,.37a55.79,55.79,0,1,0,103.22-29.05l50.43-49.41A55.74,55.74,0,1,0,3944.21,0Z"/><path class="cls-2" d="M157.69,665.42a87.49,87.49,0,0,1,73.46,33.72,139.36,139.36,0,0,1,9.63,15.64L295,691.32A128.21,128.21,0,0,0,277.6,663a153.22,153.22,0,0,0-119.84-53A151.09,151.09,0,0,0,37.92,663a203.59,203.59,0,0,0,0,236.66,162,162,0,0,0,228.8,10.88q5.7-5.19,10.88-10.88A129.1,129.1,0,0,0,295,872.58l-54.84-23.51a129.79,129.79,0,0,1-9,15.07A96.83,96.83,0,0,1,94.56,874.56a95.72,95.72,0,0,1-10.41-10.42,160.16,160.16,0,0,1,0-165A86.77,86.77,0,0,1,157.69,665.42Z"/><path class="cls-2" d="M483.49,610.58a145,145,0,0,0-122.25,56l-8.41,12.64,53.6,25.89a61.32,61.32,0,0,1,7.22-10.23A84.09,84.09,0,0,1,482.3,665.4a98.1,98.1,0,0,1,61.43,17.38,64.58,64.58,0,0,1,25.89,44l-62.64,9c-49.38,7.2-82.47,9.63-117.43,29.49A96.47,96.47,0,0,0,340.19,849a102.9,102.9,0,0,0,21.05,62.07,113.19,113.19,0,0,0,83.7,41.56,153.94,153.94,0,0,0,80.69-19.27A119.58,119.58,0,0,0,578,882.19v62.07H629.8V740.11A138.54,138.54,0,0,0,616,680.52C591.87,631.66,543.11,610.58,483.49,610.58ZM561.18,837A112.66,112.66,0,0,1,453.4,899.07a55.52,55.52,0,0,1-54.81-53.6c.59-41.53,51.79-50,100-57.8,33.72-6,54.79-9,73.47-12A127,127,0,0,1,561.18,837Z"/><path class="cls-2" d="M926.14,784.62a189.15,189.15,0,0,1-3.62,42.73,81,81,0,0,1-27.68,50A82.84,82.84,0,0,1,845.45,896,89.15,89.15,0,0,1,787,877.9c-27.09-21.06-31.91-56.61-31.91-98.15V619h-59V779.75c-.59,58.42,6.63,107.78,50,142.74a144.64,144.64,0,0,0,180.64-4.22,68,68,0,0,0,6.63-6.63v32.52h51.79V619h-59Z"/><path class="cls-2" d="M1291.7,786.38a152.74,152.74,0,0,0-63.21-29.49c-22.89-6-43.37-11.45-59-16.26A97.62,97.62,0,0,1,1129.75,722a29,29,0,0,1-7.22-19.87A33.7,33.7,0,0,1,1143,674.41a102,102,0,0,1,44.57-9,96.54,96.54,0,0,1,43.94,10.23,76.48,76.48,0,0,1,36.12,42.73l57.11-13.86a136,136,0,0,0-68-78.28A147.43,147.43,0,0,0,1188,610a155.19,155.19,0,0,0-69.84,12.63,90.33,90.33,0,0,0-55.41,80.69A81.15,81.15,0,0,0,1092.89,766a168,168,0,0,0,63.83,28.3c21.07,6,39.15,10.23,55.41,15a104.33,104.33,0,0,1,43.38,19.86,33.45,33.45,0,0,1,11.42,27.71,36.44,36.44,0,0,1-15.65,26.49,107.33,107.33,0,0,1-59,13.85,87.41,87.41,0,0,1-67.43-24.67,90.87,90.87,0,0,1-20.49-48.17l-56,13.85a159.37,159.37,0,0,0,34.31,72.25,143,143,0,0,0,110.21,42.73,167.35,167.35,0,0,0,90.3-21.68,91.86,91.86,0,0,0,43.37-69.83A83.48,83.48,0,0,0,1291.7,786.38Z"/><path class="cls-2" d="M1515.15,610.58a145,145,0,0,0-122.25,56l-8.42,12.64,53.6,25.89a61.8,61.8,0,0,1,7.2-10.23A84.12,84.12,0,0,1,1514,665.4a98,98,0,0,1,61.42,17.38,64.59,64.59,0,0,1,25.9,44l-62.64,9c-49.39,7.2-82.51,9.63-117.44,29.49A96.55,96.55,0,0,0,1371.84,849a103.06,103.06,0,0,0,21.06,62.07,113.2,113.2,0,0,0,83.72,41.56,153.75,153.75,0,0,0,80.69-19.27,119.58,119.58,0,0,0,52.41-51.17v62.07h51.76V740.11a138.69,138.69,0,0,0-13.83-59.59C1623.54,631.66,1574.76,610.58,1515.15,610.58ZM1592.83,837a112.65,112.65,0,0,1-107.77,62.06,55.53,55.53,0,0,1-54.82-53.6c.62-41.53,51.81-50,100-57.8,33.74-6,54.82-9,73.46-12A126.72,126.72,0,0,1,1592.83,837Z"/><polygon class="cls-2" points="1827.75 510.63 1745.82 510.63 1745.82 944.21 2014.38 944.21 2014.38 862.28 1827.7 862.28 1827.75 510.63"/><path class="cls-2" d="M2212,610.08a162.26,162.26,0,0,0-124.66,54.2,184.43,184.43,0,0,0-39.72,117.43,175,175,0,0,0,39.72,117.44A168.58,168.58,0,0,0,2212,953.32a160.35,160.35,0,0,0,127.66-52.38,196.2,196.2,0,0,0,19.27-26.49l-81.26-35.53c-2.48,3-3.63,6.63-6,10.22A73.51,73.51,0,0,1,2212,876.85a72.23,72.23,0,0,1-59-27.71A95.43,95.43,0,0,1,2136.16,804h239.09c.59-7.24,1.19-15.07,1.19-22.34a181.2,181.2,0,0,0-39.73-117.43A160.23,160.23,0,0,0,2212,610.08Zm-72.25,130.67A84.19,84.19,0,0,1,2153,714.26a70.59,70.59,0,0,1,59-27.71,71.81,71.81,0,0,1,59.59,27.71,99,99,0,0,1,12.63,26.49Z"/><path class="cls-2" d="M2602.84,610.11a153.33,153.33,0,0,0-87.92,31.31V619.07h-72.24V944.31h82.5V802.79a329.91,329.91,0,0,1,3.62-59,67,67,0,0,1,24.06-41.58,68.75,68.75,0,0,1,38.56-12.64,67.93,67.93,0,0,1,51.17,18.1,103.82,103.82,0,0,1,21.67,74.06V944.33h83.1V781.74c0-56.61-5.41-100-44-135.48A147.46,147.46,0,0,0,2602.84,610.11Z"/><path class="cls-2" d="M3044.27,776.2a155.61,155.61,0,0,0-63.83-29.49c-16.26-4.22-34.93-9-51.2-13.85a78.69,78.69,0,0,1-34.31-16.24,21,21,0,0,1-1.81-7.23c0-3.62,1.81-9,10.85-15.07a74.14,74.14,0,0,1,35.53-7.22,71.46,71.46,0,0,1,34.93,8.41,54.08,54.08,0,0,1,25.27,28.9l79.45-19.26a144,144,0,0,0-69.24-78.9A153.26,153.26,0,0,0,2940.67,610a163.12,163.12,0,0,0-71.06,12.64A96.45,96.45,0,0,0,2810,711.16a85.62,85.62,0,0,0,33.72,66.24,164.62,164.62,0,0,0,64.55,28.92c18.05,4.79,34.91,9,52.38,13.83a82.85,82.85,0,0,1,33.72,15.66,18.22,18.22,0,0,1,5.41,14.45,22.87,22.87,0,0,1-8.41,15,84.52,84.52,0,0,1-45.79,10.85,69.14,69.14,0,0,1-54.19-18.67,62.67,62.67,0,0,1-15.07-36.72L2798.68,840A164.2,164.2,0,0,0,2833,909.9a145.28,145.28,0,0,0,112.59,43.35,167.33,167.33,0,0,0,90.32-21.06,97.33,97.33,0,0,0,46.38-74.68A91,91,0,0,0,3044.27,776.2Z"/></svg>