<?xml version="1.0" encoding="UTF-8" standalone="no"?> <!-- Created with Vectornator for iOS (http://vectornator.io/) --><!DOCTYPE svg PUBLIC "-//W3C//DTD SVG 1.1//EN" "http://www.w3.org/Graphics/SVG/1.1/DTD/svg11.dtd">
<svg height="100%" style="fill-rule:nonzero;clip-rule:evenodd;stroke-linecap:round;stroke-linejoin:round;" xmlns:xlink="http://www.w3.org/1999/xlink" xmlns="http://www.w3.org/2000/svg" xml:space="preserve" width="100%" xmlns:vectornator="http://vectornator.io" version="1.1" viewBox="0 0 1395.37 150">
<metadata>
<vectornator:setting key="DimensionsVisible" value="1"/>
<vectornator:setting key="PencilOnly" value="0"/>
<vectornator:setting key="SnapToPoints" value="0"/>
<vectornator:setting key="OutlineMode" value="0"/>
<vectornator:setting key="CMYKEnabledKey" value="0"/>
<vectornator:setting key="RulersVisible" value="1"/>
<vectornator:setting key="SnapToEdges" value="0"/>
<vectornator:setting key="GuidesVisible" value="1"/>
<vectornator:setting key="DisplayWhiteBackground" value="0"/>
<vectornator:setting key="doHistoryDisabled" value="0"/>
<vectornator:setting key="SnapToGuides" value="1"/>
<vectornator:setting key="TimeLapseWatermarkDisabled" value="0"/>
<vectornator:setting key="Units" value="Points"/>
<vectornator:setting key="DynamicGuides" value="0"/>
<vectornator:setting key="IsolateActiveLayer" value="0"/>
<vectornator:setting key="SnapToGrid" value="0"/>
</metadata>
<defs/>
<g id="Layer 1" vectornator:layerName="Layer 1">
<g opacity="1">
<g opacity="1">
<g opacity="1">
<path d="M32.8391+16.9937L220.377+16.9937C238.514+16.9937+253.216+27.6108+253.216+40.7077L253.216+104.64C253.216+117.736+238.514+128.354+220.377+128.354L32.8391+128.354C14.7025+128.354-2.30444e-05+117.736-2.30444e-05+104.64L-2.30444e-05+40.7077C-2.30444e-05+27.6108+14.7025+16.9937+32.8391+16.9937Z" opacity="1" fill="#edbc3e"/>
<path d="M17.9342+0.0599991L42.2949+0.0599991C52.1287+0.0599991+60.1007+10.5374+60.1007+23.4619L60.1007+125.918C60.1007+138.842+52.1287+149.32+42.2949+149.32L17.9342+149.32C8.10032+149.32+0.128387+138.842+0.128387+125.918L0.128387+23.4619C0.128387+10.5374+8.10032+0.0599991+17.9342+0.0599991Z" opacity="1" fill="#edbc3e"/>
<path d="M210.675+0.680489L235.035+0.680489C244.869+0.680489+252.841+11.1579+252.841+24.0824L252.841+126.538C252.841+139.463+244.869+149.94+235.035+149.94L210.675+149.94C200.841+149.94+192.869+139.463+192.869+126.538L192.869+24.0824C192.869+11.1579+200.841+0.680489+210.675+0.680489Z" opacity="1" fill="#edbc3e"/>
</g>
<g opacity="1">
<g opacity="1">
<path d="M52.4447+57.8473L52.4447+57.8473C61.7462+57.8473+69.2866+65.3874+69.2866+74.6886L69.2866+74.6886C69.2866+83.9898+61.7462+91.53+52.4447+91.53L52.4447+91.53C43.1432+91.53+35.6028+83.9898+35.6028+74.6886L35.6028+74.6886C35.6028+65.3874+43.1432+57.8473+52.4447+57.8473Z" opacity="1" fill="#000000"/>
<path d="M66.6004+70.9176L187.98+70.9176L187.98+78.9137L66.6004+78.9137L66.6004+70.9176Z" opacity="1" fill="#000000"/>
<path d="M200.772+57.7439L200.772+57.7439C210.073+57.7439+217.613+65.2841+217.613+74.5853L217.613+74.5853C217.613+83.8865+210.073+91.4266+200.772+91.4266L200.772+91.4266C191.47+91.4266+183.93+83.8865+183.93+74.5853L183.93+74.5853C183.93+65.2841+191.47+57.7439+200.772+57.7439Z" opacity="1" fill="#000000"/>
</g>
<g opacity="1">
<path d="M95.3159+31.1519L95.3159+31.1519C104.617+31.1519+112.158+38.6921+112.158+47.9933L112.158+47.9933C112.158+57.2945+104.617+64.8346+95.3159+64.8346L95.3159+64.8346C86.0144+64.8346+78.474+57.2945+78.474+47.9933L78.474+47.9933C78.474+38.6921+86.0144+31.1519+95.3159+31.1519Z" opacity="1" fill="#000000"/>
<g opacity="1">
<path d="M108.704+43.9663L149.778+43.9663L149.778+51.9623L108.704+51.9623L108.704+43.9663Z" opacity="1" fill="#000000"/>
<path d="M149.602+16.9798L149.784+51.9709L141.795+51.9638L141.608+17.0029L149.602+16.9798Z" opacity="1" fill="#000000"/>
</g>
</g>
<g opacity="1">
<path d="M95.0516+84.8172L95.0516+84.8172C104.353+84.8172+111.894+92.3573+111.894+101.659L111.894+101.659C111.894+110.96+104.353+118.5+95.0516+118.5L95.0516+118.5C85.7501+118.5+78.2097+110.96+78.2097+101.659L78.2097+101.659C78.2097+92.3573+85.7501+84.8172+95.0516+84.8172Z" opacity="1" fill="#000000"/>
<g opacity="1">
<path d="M108.83+98.0654L149.905+98.0654L149.905+106.061L108.83+106.061L108.83+98.0654Z" opacity="1" fill="#000000"/>
<path d="M149.906+98.0516L150.062+128.353L142.069+128.36L141.87+98.061L149.906+98.0516Z" opacity="1" fill="#000000"/>
</g>
</g>
</g>
</g>
<path d="M345.935+58.6674C343.661+56.8194+341.386+55.4512+339.112+54.5627C336.837+53.6743+334.634+53.2301+332.501+53.2301C329.8+53.2301+327.597+53.8697+325.891+55.1491C324.185+56.4285+323.332+58.0988+323.332+60.16C323.332+61.5815+323.759+62.7542+324.612+63.6782C325.465+64.6022+326.584+65.4018+327.97+66.077C329.356+66.7523+330.92+67.3386+332.661+67.8362C334.403+68.3337+336.126+68.8668+337.832+69.4354C344.656+71.7098+349.649+74.7483+352.812+78.5509C355.975+82.3534+357.556+87.311+357.556+93.4235C357.556+97.5459+356.863+101.277+355.477+104.618C354.091+107.959+352.066+110.819+349.4+113.2C346.735+115.581+343.465+117.429+339.591+118.744C335.718+120.059+331.328+120.717+326.424+120.717C316.26+120.717+306.842+117.696+298.17+111.654L307.126+94.8095C310.254+97.5815+313.346+99.6427+316.402+100.993C319.458+102.344+322.479+103.019+325.465+103.019C328.876+103.019+331.417+102.237+333.088+100.673C334.758+99.1096+335.593+97.3327+335.593+95.3426C335.593+94.1343+335.38+93.0859+334.953+92.1975C334.527+91.309+333.816+90.4916+332.821+89.7453C331.826+88.999+330.529+88.306+328.93+87.6664C327.33+87.0267+325.393+86.3159+323.119+85.5341C320.418+84.6812+317.77+83.7394+315.176+82.7088C312.582+81.6782+310.272+80.31+308.246+78.6042C306.22+76.8984+304.585+74.7483+303.341+72.154C302.098+69.5598+301.476+66.2725+301.476+62.2922C301.476+58.312+302.133+54.7049+303.448+51.4709C304.763+48.237+306.611+45.465+308.992+43.155C311.373+40.8451+314.287+39.0504+317.735+37.771C321.182+36.4917+325.038+35.852+329.303+35.852C333.283+35.852+337.441+36.4028+341.777+37.5045C346.113+38.6062+350.271+40.2232+354.251+42.3554L345.935+58.6674Z" opacity="1" fill="#ffffff"/>
<path d="M388.156+63.7848L388.156+118.478L368.858+118.478L368.858+63.7848L388.156+63.7848ZM367.578+42.7819C367.578+41.2893+367.863+39.8855+368.431+38.5706C369+37.2557+369.782+36.1008+370.777+35.1057C371.772+34.1106+372.927+33.3288+374.242+32.7602C375.557+32.1916+376.961+31.9073+378.453+31.9073C379.946+31.9073+381.35+32.1916+382.665+32.7602C383.98+33.3288+385.135+34.1106+386.13+35.1057C387.125+36.1008+387.907+37.2557+388.475+38.5706C389.044+39.8855+389.328+41.2893+389.328+42.7819C389.328+44.2745+389.044+45.6782+388.475+46.9931C387.907+48.308+387.125+49.463+386.13+50.4581C385.135+51.4532+383.98+52.235+382.665+52.8036C381.35+53.3722+379.946+53.6565+378.453+53.6565C376.961+53.6565+375.557+53.3722+374.242+52.8036C372.927+52.235+371.772+51.4532+370.777+50.4581C369.782+49.463+369+48.308+368.431+46.9931C367.863+45.6782+367.578+44.2745+367.578+42.7819Z" opacity="1" fill="#ffffff"/>
<path d="M420.674+29.9882L420.674+118.478L401.376+118.478L401.376+29.9882L420.674+29.9882Z" opacity="1" fill="#ffffff"/>
<path d="M453.192+63.7848L453.192+118.478L433.894+118.478L433.894+63.7848L453.192+63.7848ZM432.615+42.7819C432.615+41.2893+432.899+39.8855+433.468+38.5706C434.037+37.2557+434.818+36.1008+435.814+35.1057C436.809+34.1106+437.964+33.3288+439.279+32.7602C440.594+32.1916+441.997+31.9073+443.49+31.9073C444.983+31.9073+446.386+32.1916+447.701+32.7602C449.016+33.3288+450.171+34.1106+451.166+35.1057C452.162+36.1008+452.943+37.2557+453.512+38.5706C454.081+39.8855+454.365+41.2893+454.365+42.7819C454.365+44.2745+454.081+45.6782+453.512+46.9931C452.943+48.308+452.162+49.463+451.166+50.4581C450.171+51.4532+449.016+52.235+447.701+52.8036C446.386+53.3722+444.983+53.6565+443.49+53.6565C441.997+53.6565+440.594+53.3722+439.279+52.8036C437.964+52.235+436.809+51.4532+435.814+50.4581C434.818+49.463+434.037+48.308+433.468+46.9931C432.899+45.6782+432.615+44.2745+432.615+42.7819Z" opacity="1" fill="#ffffff"/>
<path d="M507.674+81.4828C504.333+79.2083+500.957+78.0711+497.545+78.0711C495.697+78.0711+493.973+78.3909+492.374+79.0306C490.775+79.6703+489.371+80.5765+488.163+81.7493C486.954+82.922+486.013+84.308+485.337+85.9072C484.662+87.5064+484.324+89.3011+484.324+91.2912C484.324+93.2103+484.662+94.9694+485.337+96.5686C486.013+98.1678+486.937+99.5538+488.109+100.727C489.282+101.899+490.686+102.806+492.321+103.445C493.956+104.085+495.697+104.405+497.545+104.405C501.17+104.405+504.546+103.161+507.674+100.673L507.674+117.092C502.911+119.153+498.398+120.184+494.133+120.184C490.153+120.184+486.368+119.508+482.778+118.158C479.189+116.808+476.026+114.871+473.29+112.347C470.553+109.824+468.367+106.804+466.733+103.285C465.098+99.767+464.28+95.8401+464.28+91.5045C464.28+87.1688+465.062+83.2063+466.626+79.617C468.19+76.0277+470.322+72.9359+473.023+70.3416C475.724+67.7473+478.94+65.7217+482.672+64.2646C486.403+62.8075+490.402+62.079+494.666+62.079C499.357+62.079+503.693+63.0741+507.674+65.0642L507.674+81.4828Z" opacity="1" fill="#ffffff"/>
<path d="M536.887+90.8648C536.887+92.7128+537.224+94.4008+537.9+95.9289C538.575+97.4571+539.463+98.7897+540.565+99.927C541.667+101.064+542.982+101.953+544.51+102.592C546.038+103.232+547.655+103.552+549.361+103.552C551.067+103.552+552.684+103.232+554.212+102.592C555.74+101.953+557.055+101.064+558.157+99.927C559.259+98.7897+560.147+97.4571+560.822+95.9289C561.498+94.4008+561.835+92.7483+561.835+90.9714C561.835+89.2656+561.498+87.6486+560.822+86.1205C560.147+84.5923+559.259+83.2597+558.157+82.1224C557.055+80.9852+555.74+80.0968+554.212+79.4571C552.684+78.8174+551.067+78.4976+549.361+78.4976C547.655+78.4976+546.038+78.8174+544.51+79.4571C542.982+80.0968+541.667+80.9852+540.565+82.1224C539.463+83.2597+538.575+84.5746+537.9+86.0672C537.224+87.5597+536.887+89.159+536.887+90.8648ZM516.523+90.6516C516.523+86.6002+517.34+82.8154+518.975+79.2972C520.61+75.7789+522.884+72.7226+525.799+70.1284C528.713+67.5341+532.178+65.4907+536.194+63.9981C540.21+62.5055+544.599+61.7592+549.361+61.7592C554.052+61.7592+558.406+62.4877+562.422+63.9448C566.438+65.4018+569.92+67.4275+572.87+70.0218C575.82+72.616+578.112+75.7078+579.747+79.2972C581.382+82.8865+582.199+86.849+582.199+91.1846C582.199+95.5203+581.364+99.4827+579.694+103.072C578.023+106.661+575.731+109.753+572.817+112.347C569.903+114.942+566.402+116.95+562.315+118.371C558.228+119.793+553.803+120.503+549.041+120.503C544.35+120.503+540.014+119.793+536.034+118.371C532.053+116.95+528.624+114.924+525.745+112.294C522.867+109.664+520.61+106.519+518.975+102.859C517.34+99.1984+516.523+95.1293+516.523+90.6516Z" opacity="1" fill="#ffffff"/>
<path d="M593.287+63.7848L612.585+63.7848L612.585+70.7147C615.215+67.5163+617.88+65.3663+620.581+64.2646C623.282+63.1629+626.445+62.6121+630.07+62.6121C633.909+62.6121+637.196+63.234+639.933+64.4778C642.669+65.7217+644.997+67.4808+646.916+69.7552C648.48+71.6032+649.546+73.6644+650.114+75.9388C650.683+78.2133+650.967+80.8075+650.967+83.7216L650.967+118.478L631.67+118.478L631.67+90.8648C631.67+88.1639+631.474+85.9783+631.083+84.308C630.692+82.6377+629.999+81.3051+629.004+80.31C628.151+79.4571+627.192+78.8529+626.126+78.4976C625.059+78.1422+623.922+77.9645+622.714+77.9645C619.444+77.9645+616.939+78.9418+615.197+80.8964C613.456+82.851+612.585+85.6407+612.585+89.2656L612.585+118.478L593.287+118.478L593.287+63.7848Z" opacity="1" fill="#ffffff"/>
<path d="M723.041+74.0198L726.986+74.0198C731.108+74.0198+734.271+73.1669+736.475+71.461C738.678+69.7552+739.78+67.3031+739.78+64.1047C739.78+60.9063+738.678+58.4541+736.475+56.7483C734.271+55.0425+731.108+54.1896+726.986+54.1896L723.041+54.1896L723.041+74.0198ZM768.993+118.478L742.978+118.478L723.041+87.5597L723.041+118.478L702.144+118.478L702.144+38.0909L734.662+38.0909C739.14+38.0909+743.049+38.7483+746.39+40.0632C749.731+41.3781+752.485+43.1728+754.653+45.4472C756.821+47.7217+758.456+50.3515+759.557+53.3367C760.659+56.3219+761.21+59.5203+761.21+62.9319C761.21+69.0445+759.735+74.002+756.785+77.8046C753.835+81.6071+749.482+84.1836+743.725+85.5341L768.993+118.478Z" opacity="1" fill="#ffffff"/>
<path d="M794.155+90.8648C794.155+92.7128+794.492+94.4008+795.167+95.9289C795.843+97.4571+796.731+98.7897+797.833+99.927C798.935+101.064+800.25+101.953+801.778+102.592C803.306+103.232+804.923+103.552+806.629+103.552C808.335+103.552+809.952+103.232+811.48+102.592C813.008+101.953+814.323+101.064+815.425+99.927C816.526+98.7897+817.415+97.4571+818.09+95.9289C818.765+94.4008+819.103+92.7483+819.103+90.9714C819.103+89.2656+818.765+87.6486+818.09+86.1205C817.415+84.5923+816.526+83.2597+815.425+82.1224C814.323+80.9852+813.008+80.0968+811.48+79.4571C809.952+78.8174+808.335+78.4976+806.629+78.4976C804.923+78.4976+803.306+78.8174+801.778+79.4571C800.25+80.0968+798.935+80.9852+797.833+82.1224C796.731+83.2597+795.843+84.5746+795.167+86.0672C794.492+87.5597+794.155+89.159+794.155+90.8648ZM773.791+90.6516C773.791+86.6002+774.608+82.8154+776.243+79.2972C777.878+75.7789+780.152+72.7226+783.066+70.1284C785.981+67.5341+789.446+65.4907+793.462+63.9981C797.477+62.5055+801.867+61.7592+806.629+61.7592C811.32+61.7592+815.674+62.4877+819.689+63.9448C823.705+65.4018+827.188+67.4275+830.138+70.0218C833.088+72.616+835.38+75.7078+837.015+79.2972C838.65+82.8865+839.467+86.849+839.467+91.1846C839.467+95.5203+838.632+99.4827+836.961+103.072C835.291+106.661+832.999+109.753+830.085+112.347C827.17+114.942+823.67+116.95+819.583+118.371C815.496+119.793+811.071+120.503+806.309+120.503C801.618+120.503+797.282+119.793+793.302+118.371C789.321+116.95+785.892+114.924+783.013+112.294C780.134+109.664+777.878+106.519+776.243+102.859C774.608+99.1984+773.791+95.1293+773.791+90.6516Z" opacity="1" fill="#ffffff"/>
<path d="M869.853+63.7848L869.853+94.5963C869.853+101.348+873.123+104.725+879.662+104.725C886.201+104.725+889.471+101.348+889.471+94.5963L889.471+63.7848L908.768+63.7848L908.768+98.3278C908.768+105.72+906.334+111.264+901.465+114.96C896.596+118.655+889.328+120.503+879.662+120.503C869.995+120.503+862.727+118.655+857.858+114.96C852.99+111.264+850.555+105.72+850.555+98.3278L850.555+63.7848L869.853+63.7848Z" opacity="1" fill="#ffffff"/>
<path d="M921.882+63.7848L941.18+63.7848L941.18+70.7147C943.81+67.5163+946.475+65.3663+949.176+64.2646C951.877+63.1629+955.04+62.6121+958.665+62.6121C962.503+62.6121+965.791+63.234+968.527+64.4778C971.264+65.7217+973.592+67.4808+975.511+69.7552C977.074+71.6032+978.141+73.6644+978.709+75.9388C979.278+78.2133+979.562+80.8075+979.562+83.7216L979.562+118.478L960.264+118.478L960.264+90.8648C960.264+88.1639+960.069+85.9783+959.678+84.308C959.287+82.6377+958.594+81.3051+957.599+80.31C956.746+79.4571+955.787+78.8529+954.72+78.4976C953.654+78.1422+952.517+77.9645+951.309+77.9645C948.039+77.9645+945.533+78.9418+943.792+80.8964C942.051+82.851+941.18+85.6407+941.18+89.2656L941.18+118.478L921.882+118.478L921.882+63.7848Z" opacity="1" fill="#ffffff"/>
<path d="M1010.59+90.9714C1010.59+92.7483+1010.91+94.4008+1011.55+95.9289C1012.19+97.4571+1013.06+98.7897+1014.16+99.927C1015.26+101.064+1016.58+101.953+1018.1+102.592C1019.63+103.232+1021.29+103.552+1023.06+103.552C1024.77+103.552+1026.39+103.232+1027.91+102.592C1029.44+101.953+1030.76+101.064+1031.86+99.927C1032.96+98.7897+1033.85+97.4748+1034.52+95.9822C1035.2+94.4897+1035.54+92.8904+1035.54+91.1846C1035.54+89.4788+1035.2+87.8618+1034.52+86.3337C1033.85+84.8056+1032.96+83.4729+1031.86+82.3357C1030.76+81.1984+1029.44+80.31+1027.91+79.6703C1026.39+79.0306+1024.77+78.7108+1023.06+78.7108C1021.36+78.7108+1019.74+79.0306+1018.21+79.6703C1016.68+80.31+1015.37+81.1984+1014.27+82.3357C1013.16+83.4729+1012.28+84.77+1011.6+86.2271C1010.93+87.6841+1010.59+89.2656+1010.59+90.9714ZM1034.9+29.9882L1054.3+29.9882L1054.3+118.478L1034.9+118.478L1034.9+112.401C1030.77+117.589+1025.19+120.184+1018.16+120.184C1014.18+120.184+1010.52+119.437+1007.18+117.945C1003.84+116.452+1000.92+114.391+998.433+111.761C995.946+109.131+994.009+106.039+992.623+102.486C991.237+98.9319+990.544+95.0938+990.544+90.9714C990.544+87.0622+991.201+83.3485+992.516+79.8302C993.831+76.312+995.697+73.2379+998.114+70.6081C1000.53+67.9783+1003.43+65.8993+1006.8+64.3712C1010.18+62.8431+1013.89+62.079+1017.94+62.079C1024.77+62.079+1030.42+64.4601+1034.9+69.2221L1034.9+29.9882Z" opacity="1" fill="#ffffff"/>
<path d="M1085.33+90.9714C1085.33+92.7483+1085.65+94.4008+1086.29+95.9289C1086.93+97.4571+1087.8+98.7897+1088.9+99.927C1090+101.064+1091.31+101.953+1092.84+102.592C1094.37+103.232+1096.02+103.552+1097.8+103.552C1099.51+103.552+1101.12+103.232+1102.65+102.592C1104.18+101.953+1105.5+101.064+1106.6+99.927C1107.7+98.7897+1108.59+97.4748+1109.26+95.9822C1109.94+94.4897+1110.28+92.8904+1110.28+91.1846C1110.28+89.4788+1109.94+87.8618+1109.26+86.3337C1108.59+84.8056+1107.7+83.4729+1106.6+82.3357C1105.5+81.1984+1104.18+80.31+1102.65+79.6703C1101.12+79.0306+1099.51+78.7108+1097.8+78.7108C1096.02+78.7108+1094.37+79.0306+1092.84+79.6703C1091.31+80.31+1090+81.1984+1088.9+82.3357C1087.8+83.4729+1086.93+84.77+1086.29+86.2271C1085.65+87.6841+1085.33+89.2656+1085.33+90.9714ZM1109.64+63.7848L1129.04+63.7848L1129.04+118.478L1109.64+118.478L1109.64+112.401C1105.51+117.589+1099.93+120.184+1092.9+120.184C1088.92+120.184+1085.26+119.455+1081.91+117.998C1078.57+116.541+1075.66+114.498+1073.17+111.868C1070.68+109.238+1068.75+106.146+1067.36+102.592C1065.98+99.0385+1065.28+95.1649+1065.28+90.9714C1065.28+87.0622+1065.96+83.3485+1067.31+79.8302C1068.66+76.312+1070.54+73.2379+1072.96+70.6081C1075.38+67.9783+1078.25+65.8993+1081.6+64.3712C1084.94+62.8431+1088.63+62.079+1092.68+62.079C1099.51+62.079+1105.16+64.4601+1109.64+69.2221L1109.64+63.7848Z" opacity="1" fill="#ffffff"/>
<path d="M1185.76+91.2912C1185.76+89.5854+1185.44+87.9684+1184.8+86.4403C1184.16+84.9122+1183.27+83.5795+1182.14+82.4423C1181+81.3051+1179.68+80.3988+1178.19+79.7236C1176.7+79.0484+1175.06+78.7108+1173.29+78.7108C1171.58+78.7108+1169.98+79.0306+1168.49+79.6703C1167+80.31+1165.7+81.1984+1164.6+82.3357C1163.49+83.4729+1162.61+84.8056+1161.93+86.3337C1161.26+87.8618+1160.92+89.4788+1160.92+91.1846C1160.92+92.8904+1161.24+94.4897+1161.88+95.9822C1162.52+97.4748+1163.41+98.772+1164.54+99.8737C1165.68+100.975+1167.01+101.864+1168.54+102.539C1170.07+103.214+1171.69+103.552+1173.39+103.552C1175.1+103.552+1176.7+103.232+1178.19+102.592C1179.68+101.953+1180.98+101.064+1182.08+99.927C1183.18+98.7897+1184.07+97.4748+1184.75+95.9822C1185.42+94.4897+1185.76+92.926+1185.76+91.2912ZM1161.45+29.9882L1161.45+69.2221C1166+64.4601+1171.69+62.079+1178.51+62.079C1182.56+62.079+1186.28+62.8431+1189.65+64.3712C1193.03+65.8993+1195.91+67.9605+1198.29+70.5548C1200.67+73.1491+1202.53+76.2054+1203.89+79.7236C1205.24+83.2419+1205.91+86.9911+1205.91+90.9714C1205.91+95.0227+1205.22+98.8253+1203.83+102.379C1202.45+105.933+1200.51+109.025+1198.02+111.654C1195.53+114.284+1192.6+116.363+1189.23+117.891C1185.85+119.42+1182.21+120.184+1178.3+120.184C1171.19+120.184+1165.57+117.589+1161.45+112.401L1161.45+118.478L1142.15+118.478L1142.15+29.9882L1161.45+29.9882Z" opacity="1" fill="#ffffff"/>
<path d="M1235.12+90.8648C1235.12+92.7128+1235.46+94.4008+1236.14+95.9289C1236.81+97.4571+1237.7+98.7897+1238.8+99.927C1239.9+101.064+1241.22+101.953+1242.75+102.592C1244.28+103.232+1245.89+103.552+1247.6+103.552C1249.3+103.552+1250.92+103.232+1252.45+102.592C1253.98+101.953+1255.29+101.064+1256.39+99.927C1257.5+98.7897+1258.38+97.4571+1259.06+95.9289C1259.73+94.4008+1260.07+92.7483+1260.07+90.9714C1260.07+89.2656+1259.73+87.6486+1259.06+86.1205C1258.38+84.5923+1257.5+83.2597+1256.39+82.1224C1255.29+80.9852+1253.98+80.0968+1252.45+79.4571C1250.92+78.8174+1249.3+78.4976+1247.6+78.4976C1245.89+78.4976+1244.28+78.8174+1242.75+79.4571C1241.22+80.0968+1239.9+80.9852+1238.8+82.1224C1237.7+83.2597+1236.81+84.5746+1236.14+86.0672C1235.46+87.5597+1235.12+89.159+1235.12+90.8648ZM1214.76+90.6516C1214.76+86.6002+1215.58+82.8154+1217.21+79.2972C1218.85+75.7789+1221.12+72.7226+1224.04+70.1284C1226.95+67.5341+1230.42+65.4907+1234.43+63.9981C1238.45+62.5055+1242.84+61.7592+1247.6+61.7592C1252.29+61.7592+1256.64+62.4877+1260.66+63.9448C1264.67+65.4018+1268.16+67.4275+1271.11+70.0218C1274.06+72.616+1276.35+75.7078+1277.98+79.2972C1279.62+82.8865+1280.44+86.849+1280.44+91.1846C1280.44+95.5203+1279.6+99.4827+1277.93+103.072C1276.26+106.661+1273.97+109.753+1271.05+112.347C1268.14+114.942+1264.64+116.95+1260.55+118.371C1256.47+119.793+1252.04+120.503+1247.28+120.503C1242.59+120.503+1238.25+119.793+1234.27+118.371C1230.29+116.95+1226.86+114.924+1223.98+112.294C1221.1+109.664+1218.85+106.519+1217.21+102.859C1215.58+99.1984+1214.76+95.1293+1214.76+90.6516Z" opacity="1" fill="#ffffff"/>
<path d="M1310.82+63.7848L1310.82+94.5963C1310.82+101.348+1314.09+104.725+1320.63+104.725C1327.17+104.725+1330.44+101.348+1330.44+94.5963L1330.44+63.7848L1349.74+63.7848L1349.74+98.3278C1349.74+105.72+1347.3+111.264+1342.43+114.96C1337.57+118.655+1330.3+120.503+1320.63+120.503C1310.96+120.503+1303.7+118.655+1298.83+114.96C1293.96+111.264+1291.52+105.72+1291.52+98.3278L1291.52+63.7848L1310.82+63.7848Z" opacity="1" fill="#ffffff"/>
<path d="M1384.39+79.8835L1384.39+118.478L1365.09+118.478L1365.09+79.8835L1358.69+79.8835L1358.69+63.7848L1365.09+63.7848L1365.09+47.3663L1384.39+47.3663L1384.39+63.7848L1395.37+63.7848L1395.37+79.8835L1384.39+79.8835Z" opacity="1" fill="#ffffff"/>
</g>
</g>
</svg>
