<?xml version="1.0" encoding="UTF-8" standalone="no"?> <!-- Created with Vectornator for iOS (http://vectornator.io/) --><!DOCTYPE svg PUBLIC "-//W3C//DTD SVG 1.1//EN" "http://www.w3.org/Graphics/SVG/1.1/DTD/svg11.dtd">
<svg height="100%" style="fill-rule:nonzero;clip-rule:evenodd;stroke-linecap:round;stroke-linejoin:round;" xmlns:xlink="http://www.w3.org/1999/xlink" xmlns="http://www.w3.org/2000/svg" xml:space="preserve" width="100%" xmlns:vectornator="http://vectornator.io" version="1.1" viewBox="0 0 3600 2199.79">
<metadata>
<vectornator:setting key="DimensionsVisible" value="1"/>
<vectornator:setting key="PencilOnly" value="0"/>
<vectornator:setting key="SnapToPoints" value="0"/>
<vectornator:setting key="OutlineMode" value="0"/>
<vectornator:setting key="CMYKEnabledKey" value="0"/>
<vectornator:setting key="RulersVisible" value="1"/>
<vectornator:setting key="SnapToEdges" value="0"/>
<vectornator:setting key="GuidesVisible" value="1"/>
<vectornator:setting key="DisplayWhiteBackground" value="0"/>
<vectornator:setting key="doHistoryDisabled" value="0"/>
<vectornator:setting key="SnapToGuides" value="1"/>
<vectornator:setting key="TimeLapseWatermarkDisabled" value="0"/>
<vectornator:setting key="Units" value="Pixels"/>
<vectornator:setting key="DynamicGuides" value="0"/>
<vectornator:setting key="IsolateActiveLayer" value="0"/>
<vectornator:setting key="SnapToGrid" value="0"/>
</metadata>
<defs/>
<g id="Layer 1" vectornator:layerName="Layer 1">
<g opacity="1">
<path d="M1572.94+895.266C1573.91+921.37+1593.73+937.128+1625.34+937.128C1657.92+937.128+1677.65+920.5+1677.65+892.946C1677.65+871.58+1665.85+859.495+1638.88+853.501L1624.57+850.213C1609.49+846.926+1603.3+841.512+1603.3+831.651C1603.3+821.209+1611.9+814.732+1625.73+814.732C1639.36+814.732+1648.16+821.79+1649.22+833.294L1675.13+833.294C1674.26+808.351+1654.64+792.012+1625.44+792.012C1595.27+792.012+1576.04+808.544+1576.04+834.551C1576.04+855.241+1588.41+868.583+1613.64+874.287L1628.15+877.67C1644.29+881.248+1650.48+886.275+1650.48+895.75C1650.48+907.061+1640.91+914.312+1625.83+914.312C1609.97+914.312+1600.11+907.351+1598.85+895.266L1572.94+895.266Z" opacity="1" fill="#ffffff"/>
<path d="M1748.9+805.934C1759.73+805.934+1767.07+799.263+1767.07+789.209C1767.07+779.154+1759.73+772.483+1748.9+772.483C1738.07+772.483+1730.82+779.154+1730.82+789.209C1730.82+799.263+1738.07+805.934+1748.9+805.934ZM1794.43+934.325L1794.43+913.249L1762.24+913.249L1762.24+827.687L1704.04+827.687L1704.04+848.86L1736.52+848.86L1736.52+913.249L1702.3+913.249L1702.3+934.325L1794.43+934.325Z" opacity="1" fill="#ffffff"/>
<path d="M1916.83+934.325L1916.83+913.249L1885.02+913.249L1885.02+787.082L1826.44+787.082L1826.44+808.158L1858.53+808.158L1858.53+913.249L1824.7+913.249L1824.7+934.325L1916.83+934.325Z" opacity="1" fill="#ffffff"/>
<path d="M1993.69+805.934C2004.52+805.934+2011.87+799.263+2011.87+789.209C2011.87+779.154+2004.52+772.483+1993.69+772.483C1982.86+772.483+1975.61+779.154+1975.61+789.209C1975.61+799.263+1982.86+805.934+1993.69+805.934ZM2039.23+934.325L2039.23+913.249L2007.03+913.249L2007.03+827.687L1948.83+827.687L1948.83+848.86L1981.32+848.86L1981.32+913.249L1947.09+913.249L1947.09+934.325L2039.23+934.325Z" opacity="1" fill="#ffffff"/>
<path d="M2162.78+864.909C2160.27+838.805+2144.22+825.077+2116.67+825.077C2085.25+825.077+2067.85+842.866+2067.85+875.253L2067.85+886.468C2067.85+918.856+2085.25+936.645+2116.67+936.645C2144.22+936.645+2160.46+923.11+2162.78+897.683L2136.87+897.683C2135.04+909.091+2128.08+914.602+2116.47+914.602C2102.26+914.602+2094.43+903.967+2094.43+884.438L2094.43+877.284C2094.43+857.754+2102.26+847.12+2116.47+847.12C2127.98+847.12+2135.13+852.92+2136.87+864.909L2162.78+864.909Z" opacity="1" fill="#ffffff"/>
<path d="M2236.94+936.645C2267.01+936.645+2285.95+918.373+2285.95+889.272L2285.95+872.836C2285.95+843.736+2267.01+825.463+2236.94+825.463C2206.87+825.463+2187.92+843.736+2187.92+872.836L2187.92+889.272C2187.92+918.373+2206.87+936.645+2236.94+936.645ZM2236.94+847.12C2251.15+847.12+2259.95+857.368+2259.95+873.9L2259.95+888.209C2259.95+904.644+2251.15+914.989+2236.94+914.989C2222.73+914.989+2213.93+904.644+2213.93+888.209L2213.93+873.9C2213.93+857.368+2222.73+847.12+2236.94+847.12Z" opacity="1" fill="#ffffff"/>
<path d="M2311.86+934.325L2338.26+934.325L2338.26+872.74C2338.26+857.948+2347.06+848.57+2360.59+848.57C2374.03+848.57+2380.31+856.014+2380.31+871.676L2380.31+934.325L2406.8+934.325L2406.8+865.392C2406.8+839.385+2394.43+825.463+2371.23+825.463C2355.85+825.463+2344.35+832.714+2339.13+845.573L2337.48+845.573L2337.48+827.687L2311.86+827.687L2311.86+934.325Z" opacity="1" fill="#ffffff"/>
<path d="M1624.86+1129.12L1649.42+1180.46L1680.35+1180.46L1652.41+1124.58C1667.59+1118.58+1677.16+1103.5+1677.16+1085.42C1677.16+1057.77+1658.6+1040.95+1628.24+1040.95L1577.58+1040.95L1577.58+1180.46L1604.94+1180.46L1604.94+1129.12L1624.86+1129.12ZM1604.94+1063.38L1624.67+1063.38C1640.13+1063.38+1649.22+1071.69+1649.22+1085.52C1649.22+1099.63+1639.94+1108.05+1624.38+1108.05L1604.94+1108.05L1604.94+1063.38Z" opacity="1" fill="#ffffff"/>
<path d="M1747.35+1182.78C1777.42+1182.78+1796.37+1164.51+1796.37+1135.41L1796.37+1118.97C1796.37+1089.87+1777.42+1071.6+1747.35+1071.6C1717.28+1071.6+1698.34+1089.87+1698.34+1118.97L1698.34+1135.41C1698.34+1164.51+1717.28+1182.78+1747.35+1182.78ZM1747.35+1093.25C1761.56+1093.25+1770.36+1103.5+1770.36+1120.03L1770.36+1134.34C1770.36+1150.78+1761.56+1161.12+1747.35+1161.12C1733.14+1161.12+1724.34+1150.78+1724.34+1134.34L1724.34+1120.03C1724.34+1103.5+1733.14+1093.25+1747.35+1093.25Z" opacity="1" fill="#ffffff"/>
<path d="M1917.22+1073.82L1890.82+1073.82L1890.82+1135.5C1890.82+1150.2+1882.03+1159.58+1868.49+1159.58C1855.05+1159.58+1848.77+1152.13+1848.77+1136.47L1848.77+1073.82L1822.28+1073.82L1822.28+1142.85C1822.28+1168.86+1834.65+1182.78+1857.86+1182.78C1873.23+1182.78+1884.73+1175.43+1889.95+1162.57L1891.6+1162.57L1891.6+1180.46L1917.22+1180.46L1917.22+1073.82Z" opacity="1" fill="#ffffff"/>
<path d="M1944.68+1180.46L1971.07+1180.46L1971.07+1118.87C1971.07+1104.08+1979.87+1094.7+1993.4+1094.7C2006.84+1094.7+2013.12+1102.15+2013.12+1117.81L2013.12+1180.46L2039.61+1180.46L2039.61+1111.53C2039.61+1085.52+2027.24+1071.6+2004.04+1071.6C1988.66+1071.6+1977.16+1078.85+1971.94+1091.71L1970.3+1091.71L1970.3+1073.82L1944.68+1073.82L1944.68+1180.46Z" opacity="1" fill="#ffffff"/>
<path d="M2102.75+1182.1C2118.41+1182.1+2128.95+1175.04+2132.62+1162.09L2134.65+1162.09L2134.65+1180.46L2161.91+1180.46L2161.91+1033.22L2134.26+1033.22L2134.26+1092L2132.33+1092C2128.75+1079.24+2118.12+1072.08+2102.75+1072.08C2078.38+1072.08+2063.88+1088.9+2063.88+1117.91L2063.88+1136.28C2063.88+1165.28+2078.38+1182.1+2102.75+1182.1ZM2112.99+1159.19C2099.27+1159.19+2090.85+1150.2+2090.85+1135.5L2090.85+1117.91C2090.85+1103.21+2099.27+1094.32+2112.99+1094.32C2126.63+1094.32+2134.94+1103.21+2134.94+1117.91L2134.94+1135.5C2134.94+1150.2+2126.63+1159.19+2112.99+1159.19Z" opacity="1" fill="#ffffff"/>
<path d="M2222.53+1182.2C2236.45+1182.2+2247.67+1176.3+2252.89+1166.25L2255.21+1166.25L2255.21+1180.46L2280.35+1180.46L2280.35+1108.14C2280.35+1084.84+2264.97+1071.79+2237.61+1071.79C2212.28+1071.79+2194.79+1084.26+2192.85+1103.6L2218.57+1103.6C2220.79+1096.93+2227.66+1092.87+2236.84+1092.87C2247.77+1092.87+2254.15+1098.28+2254.15+1107.56L2254.15+1116.07L2229.2+1117.62C2202.91+1119.45+2188.89+1130.77+2188.89+1150C2188.89+1169.24+2202.42+1182.2+2222.53+1182.2ZM2231.62+1161.03C2221.37+1161.03+2214.99+1156+2214.99+1148.07C2214.99+1139.85+2221.28+1135.12+2233.65+1134.34L2254.15+1133.09L2254.15+1140.82C2254.15+1152.71+2244.77+1161.03+2231.62+1161.03Z" opacity="1" fill="#ffffff"/>
<path d="M2371.13+1182.1C2395.59+1182.1+2409.99+1165.28+2409.99+1136.28L2409.99+1117.91C2409.99+1088.9+2395.59+1072.08+2371.13+1072.08C2355.85+1072.08+2345.22+1079.24+2341.64+1092L2339.61+1092L2339.61+1033.22L2312.06+1033.22L2312.06+1180.46L2339.32+1180.46L2339.32+1162.09L2341.26+1162.09C2345.03+1175.04+2355.56+1182.1+2371.13+1182.1ZM2360.98+1159.19C2347.35+1159.19+2338.93+1150.2+2338.93+1135.5L2338.93+1117.91C2338.93+1103.21+2347.35+1094.32+2360.98+1094.32C2374.71+1094.32+2383.02+1103.21+2383.02+1117.91L2383.02+1135.5C2383.02+1150.2+2374.71+1159.19+2360.98+1159.19Z" opacity="1" fill="#ffffff"/>
<path d="M2481.73+1182.78C2511.8+1182.78+2530.75+1164.51+2530.75+1135.41L2530.75+1118.97C2530.75+1089.87+2511.8+1071.6+2481.73+1071.6C2451.66+1071.6+2432.71+1089.87+2432.71+1118.97L2432.71+1135.41C2432.71+1164.51+2451.66+1182.78+2481.73+1182.78ZM2481.73+1093.25C2495.94+1093.25+2504.74+1103.5+2504.74+1120.03L2504.74+1134.34C2504.74+1150.78+2495.94+1161.12+2481.73+1161.12C2467.52+1161.12+2458.72+1150.78+2458.72+1134.34L2458.72+1120.03C2458.72+1103.5+2467.52+1093.25+2481.73+1093.25Z" opacity="1" fill="#ffffff"/>
<path d="M2651.6+1073.82L2625.2+1073.82L2625.2+1135.5C2625.2+1150.2+2616.41+1159.58+2602.87+1159.58C2589.43+1159.58+2583.15+1152.13+2583.15+1136.47L2583.15+1073.82L2556.66+1073.82L2556.66+1142.85C2556.66+1168.86+2569.03+1182.78+2592.24+1182.78C2607.61+1182.78+2619.11+1175.43+2624.33+1162.57L2625.98+1162.57L2625.98+1180.46L2651.6+1180.46L2651.6+1073.82Z" opacity="1" fill="#ffffff"/>
<path d="M2704.48+1043.37L2704.48+1074.88L2676.73+1074.88L2676.73+1096.06L2704.48+1096.06L2704.48+1146.72C2704.48+1171.47+2715.6+1180.65+2744.6+1180.65C2746.73+1180.65+2767.81+1180.46+2768.87+1180.27L2768.87+1159.38C2767.71+1159.48+2749.24+1159.58+2746.73+1159.58C2736.58+1159.58+2730.87+1155.03+2730.87+1147.01L2730.87+1096.06L2770.13+1096.06L2770.13+1074.88L2730.39+1074.88L2730.39+1043.37L2704.48+1043.37Z" opacity="1" fill="#ffffff"/>
<path d="M2848.92+1182.3C2860.62+1182.3+2870.19+1172.43+2870.19+1160.54C2870.19+1148.55+2860.62+1138.69+2848.92+1138.69C2837.22+1138.69+2827.65+1148.55+2827.65+1160.54C2827.65+1172.43+2837.22+1182.3+2848.92+1182.3Z" opacity="1" fill="#ffffff"/>
<path d="M1626.5+1399.23L1625.25+1399.23L1596.53+1287.08L1566.85+1287.08L1608.71+1426.59L1641.2+1426.59L1683.06+1287.08L1655.6+1287.08L1626.5+1399.23Z" opacity="1" fill="#ffffff"/>
<path d="M1770.46+1396.62C1768.52+1403.58+1760.11+1408.42+1749.48+1408.42C1735.65+1408.42+1726.66+1399.33+1726.66+1385.41L1726.66+1379.61L1795.4+1379.61L1795.4+1364.91C1795.4+1336.29+1777.32+1317.73+1749.09+1317.73C1720.09+1317.73+1700.75+1336.2+1700.75+1364.14L1700.75+1381.25C1700.75+1411.51+1718.54+1428.91+1749.58+1428.91C1774.33+1428.91+1793.18+1415.47+1795.4+1396.62L1770.46+1396.62ZM1748.61+1338.23C1761.95+1338.23+1769.88+1347.41+1769.88+1362.69L1726.66+1362.69C1726.66+1347.41+1734.88+1338.23+1748.61+1338.23Z" opacity="1" fill="#ffffff"/>
<path d="M1822.28+1426.59L1848.67+1426.59L1848.67+1365.01C1848.67+1350.22+1857.47+1340.84+1871.01+1340.84C1884.44+1340.84+1890.73+1348.28+1890.73+1363.94L1890.73+1426.59L1917.22+1426.59L1917.22+1357.66C1917.22+1331.65+1904.84+1317.73+1881.64+1317.73C1866.27+1317.73+1854.76+1324.98+1849.54+1337.84L1847.9+1337.84L1847.9+1319.95L1822.28+1319.95L1822.28+1426.59Z" opacity="1" fill="#ffffff"/>
<path d="M1970.1+1289.5L1970.1+1321.02L1942.35+1321.02L1942.35+1342.19L1970.1+1342.19L1970.1+1392.85C1970.1+1417.6+1981.22+1426.79+2010.22+1426.79C2012.35+1426.79+2033.43+1426.59+2034.49+1426.4L2034.49+1405.52C2033.33+1405.61+2014.86+1405.71+2012.35+1405.71C2002.2+1405.71+1996.5+1401.17+1996.5+1393.14L1996.5+1342.19L2035.75+1342.19L2035.75+1321.02L1996.01+1321.02L1996.01+1289.5L1970.1+1289.5Z" opacity="1" fill="#ffffff"/>
<path d="M2162.01+1319.95L2135.62+1319.95L2135.62+1381.64C2135.62+1396.33+2126.82+1405.71+2113.28+1405.71C2099.85+1405.71+2093.56+1398.27+2093.56+1382.6L2093.56+1319.95L2067.07+1319.95L2067.07+1388.98C2067.07+1414.99+2079.45+1428.91+2102.65+1428.91C2118.02+1428.91+2129.53+1421.57+2134.75+1408.71L2136.39+1408.71L2136.39+1426.59L2162.01+1426.59L2162.01+1319.95Z" opacity="1" fill="#ffffff"/>
<path d="M2234.91+1379.32C2234.91+1356.4+2247.19+1344.99+2272.32+1344.99C2278.32+1344.99+2285.28+1346.25+2290.11+1348.09L2290.11+1319.37C2286.34+1317.92+2280.93+1317.15+2274.93+1317.15C2254.82+1317.15+2243.9+1326.14+2239.26+1347.32L2235.1+1347.32L2235.1+1319.95L2187.34+1319.95L2187.34+1339.48L2209.58+1339.48L2209.58+1407.16L2189.27+1407.16L2189.27+1426.59L2265.85+1426.59L2265.85+1407.16L2234.91+1407.16L2234.91+1379.32Z" opacity="1" fill="#ffffff"/>
<path d="M2382.44+1396.62C2380.51+1403.58+2372.1+1408.42+2361.46+1408.42C2347.64+1408.42+2338.64+1399.33+2338.64+1385.41L2338.64+1379.61L2407.38+1379.61L2407.38+1364.91C2407.38+1336.29+2389.31+1317.73+2361.07+1317.73C2332.07+1317.73+2312.73+1336.2+2312.73+1364.14L2312.73+1381.25C2312.73+1411.51+2330.52+1428.91+2361.56+1428.91C2386.31+1428.91+2405.16+1415.47+2407.38+1396.62L2382.44+1396.62ZM2360.59+1338.23C2373.93+1338.23+2381.86+1347.41+2381.86+1362.69L2338.64+1362.69C2338.64+1347.41+2346.86+1338.23+2360.59+1338.23Z" opacity="1" fill="#ffffff"/>
<path d="M2438.61+1351.09C2438.61+1367.52+2448.76+1377.96+2468.78+1382.31L2484.73+1385.7C2495.94+1388.11+2500+1391.01+2500+1397.01C2500+1403.97+2493.04+1408.51+2482.21+1408.51C2471.19+1408.51+2464.04+1404.45+2462.39+1397.11L2436.29+1397.11C2437.74+1417.12+2454.56+1428.82+2481.83+1428.82C2509.57+1428.82+2527.17+1415.18+2527.17+1393.62C2527.17+1377.38+2517.6+1368.2+2496.04+1363.75L2479.51+1360.37C2469.16+1358.24+2464.72+1354.76+2464.72+1348.96C2464.72+1342.19+2471.39+1337.65+2481.44+1337.65C2491.3+1337.65+2498.26+1342+2499.52+1349.06L2524.46+1349.06C2523.21+1329.04+2507.45+1317.44+2481.63+1317.44C2455.24+1317.44+2438.61+1330.4+2438.61+1351.09Z" opacity="1" fill="#ffffff"/>
<path d="M2576.67+1356.89C2576.67+1392.75+2587.6+1424.08+2608.09+1446.7L2635.26+1446.7C2614.38+1415.09+2605.96+1389.56+2605.96+1356.89C2605.96+1324.11+2614.38+1298.49+2635.26+1266.88L2608.09+1266.88C2587.6+1289.5+2576.67+1320.92+2576.67+1356.89Z" opacity="1" fill="#ffffff"/>
<path d="M2753.98+1356.89C2753.98+1320.92+2743.06+1289.5+2722.56+1266.88L2695.39+1266.88C2716.28+1298.49+2724.69+1324.11+2724.69+1356.89C2724.69+1389.56+2716.28+1415.09+2695.39+1446.7L2722.56+1446.7C2743.06+1424.08+2753.98+1392.75+2753.98+1356.89Z" opacity="1" fill="#ffffff"/>
</g>
<g opacity="1">
<path d="M825.432+778.635L1221.51+778.635C1305.99+778.635+1374.47+841.315+1374.47+918.635L1374.47+1281.16C1374.47+1358.48+1305.99+1421.16+1221.51+1421.16L825.432+1421.16C740.955+1421.16+672.472+1358.48+672.472+1281.16L672.472+918.635C672.472+841.315+740.955+778.635+825.432+778.635Z" opacity="1" fill="#ffffff"/>
<path d="M944.27+1213.6L944.27+1213.6C975.095+1213.6+1000.08+1238.59+1000.08+1269.42L1000.08+1269.42C1000.08+1300.24+975.095+1325.23+944.27+1325.23L944.27+1325.23C913.445+1325.23+888.456+1300.24+888.456+1269.42L888.456+1269.42C888.456+1238.59+913.445+1213.6+944.27+1213.6Z" opacity="1" fill="#000000"/>
<path d="M944.27+1058.13L944.27+1058.13C975.095+1058.13+1000.08+1083.11+1000.08+1113.94L1000.08+1113.94C1000.08+1144.76+975.095+1169.75+944.27+1169.75L944.27+1169.75C913.445+1169.75+888.456+1144.76+888.456+1113.94L888.456+1113.94C888.456+1083.11+913.445+1058.13+944.27+1058.13Z" opacity="1" fill="#000000"/>
<path d="M944.27+889.501L944.27+889.501C975.095+889.501+1000.08+914.49+1000.08+945.315L1000.08+945.315C1000.08+976.14+975.095+1001.13+944.27+1001.13L944.27+1001.13C913.445+1001.13+888.456+976.14+888.456+945.315L888.456+945.315C888.456+914.49+913.445+889.501+944.27+889.501Z" opacity="1" fill="#000000"/>
<path d="M1096.67+886.953L1096.67+886.953C1127.49+886.953+1152.48+911.942+1152.48+942.767L1152.48+942.767C1152.48+973.592+1127.49+998.581+1096.67+998.581L1096.67+998.581C1065.84+998.581+1040.86+973.592+1040.86+942.767L1040.86+942.767C1040.86+911.942+1065.84+886.953+1096.67+886.953Z" opacity="1" fill="#000000"/>
<path d="M1102.51+1039.53L1102.51+1039.53C1133.34+1039.53+1158.33+1064.52+1158.33+1095.34L1158.33+1095.34C1158.33+1126.17+1133.34+1151.16+1102.51+1151.16L1102.51+1151.16C1071.69+1151.16+1046.7+1126.17+1046.7+1095.34L1046.7+1095.34C1046.7+1064.52+1071.69+1039.53+1102.51+1039.53Z" opacity="1" fill="#000000"/>
</g>
</g>
</svg>
