<?xml version="1.0" encoding="UTF-8" standalone="no"?> <!-- Created with Vectornator for iOS (http://vectornator.io/) --><!DOCTYPE svg PUBLIC "-//W3C//DTD SVG 1.1//EN" "http://www.w3.org/Graphics/SVG/1.1/DTD/svg11.dtd">
<svg height="100%" style="fill-rule:nonzero;clip-rule:evenodd;stroke-linecap:round;stroke-linejoin:round;" xmlns:xlink="http://www.w3.org/1999/xlink" xmlns="http://www.w3.org/2000/svg" xml:space="preserve" width="100%" xmlns:vectornator="http://vectornator.io" version="1.1" viewBox="0 0 3600 2199.79">
<metadata>
<vectornator:setting key="DimensionsVisible" value="1"/>
<vectornator:setting key="PencilOnly" value="0"/>
<vectornator:setting key="SnapToPoints" value="0"/>
<vectornator:setting key="OutlineMode" value="0"/>
<vectornator:setting key="CMYKEnabledKey" value="0"/>
<vectornator:setting key="RulersVisible" value="1"/>
<vectornator:setting key="SnapToEdges" value="0"/>
<vectornator:setting key="GuidesVisible" value="1"/>
<vectornator:setting key="DisplayWhiteBackground" value="0"/>
<vectornator:setting key="doHistoryDisabled" value="0"/>
<vectornator:setting key="SnapToGuides" value="1"/>
<vectornator:setting key="TimeLapseWatermarkDisabled" value="0"/>
<vectornator:setting key="Units" value="Pixels"/>
<vectornator:setting key="DynamicGuides" value="0"/>
<vectornator:setting key="IsolateActiveLayer" value="0"/>
<vectornator:setting key="SnapToGrid" value="0"/>
</metadata>
<defs/>
<g id="Layer 1" vectornator:layerName="Layer 1">
<g opacity="1">
<path d="M1069.57+934.164C1070.54+960.267+1090.36+976.026+1121.97+976.026C1154.55+976.026+1174.28+959.397+1174.28+931.843C1174.28+910.477+1162.48+898.392+1135.51+892.398L1121.2+889.111C1106.12+885.824+1099.93+880.41+1099.93+870.549C1099.93+860.107+1108.53+853.63+1122.36+853.63C1135.99+853.63+1144.79+860.687+1145.85+872.192L1171.76+872.192C1170.89+847.249+1151.27+830.91+1122.07+830.91C1091.91+830.91+1072.67+847.442+1072.67+873.449C1072.67+894.138+1085.04+907.48+1110.27+913.184L1124.78+916.568C1140.92+920.145+1147.11+925.173+1147.11+934.647C1147.11+945.959+1137.54+953.21+1122.46+953.21C1106.6+953.21+1096.74+946.249+1095.48+934.164L1069.57+934.164Z" opacity="1" fill="#ffffff"/>
<path d="M1245.53+844.832C1256.36+844.832+1263.71+838.161+1263.71+828.106C1263.71+818.051+1256.36+811.381+1245.53+811.381C1234.7+811.381+1227.45+818.051+1227.45+828.106C1227.45+838.161+1234.7+844.832+1245.53+844.832ZM1291.07+973.222L1291.07+952.146L1258.87+952.146L1258.87+866.585L1200.67+866.585L1200.67+887.757L1233.15+887.757L1233.15+952.146L1198.93+952.146L1198.93+973.222L1291.07+973.222Z" opacity="1" fill="#ffffff"/>
<path d="M1413.46+973.222L1413.46+952.146L1381.65+952.146L1381.65+825.979L1323.07+825.979L1323.07+847.055L1355.16+847.055L1355.16+952.146L1321.33+952.146L1321.33+973.222L1413.46+973.222Z" opacity="1" fill="#ffffff"/>
<path d="M1490.32+844.832C1501.15+844.832+1508.5+838.161+1508.5+828.106C1508.5+818.051+1501.15+811.381+1490.32+811.381C1479.49+811.381+1472.24+818.051+1472.24+828.106C1472.24+838.161+1479.49+844.832+1490.32+844.832ZM1535.86+973.222L1535.86+952.146L1503.66+952.146L1503.66+866.585L1445.46+866.585L1445.46+887.757L1477.95+887.757L1477.95+952.146L1443.72+952.146L1443.72+973.222L1535.86+973.222Z" opacity="1" fill="#ffffff"/>
<path d="M1659.42+903.806C1656.9+877.703+1640.85+863.974+1613.3+863.974C1581.88+863.974+1564.48+881.763+1564.48+914.151L1564.48+925.366C1564.48+957.754+1581.88+975.543+1613.3+975.543C1640.85+975.543+1657.09+962.007+1659.42+936.581L1633.51+936.581C1631.67+947.989+1624.71+953.5+1613.11+953.5C1598.89+953.5+1591.06+942.865+1591.06+923.336L1591.06+916.181C1591.06+896.652+1598.89+886.017+1613.11+886.017C1624.61+886.017+1631.76+891.818+1633.51+903.806L1659.42+903.806Z" opacity="1" fill="#ffffff"/>
<path d="M1733.57+975.543C1763.64+975.543+1782.59+957.27+1782.59+928.17L1782.59+911.734C1782.59+882.633+1763.64+864.361+1733.57+864.361C1703.5+864.361+1684.55+882.633+1684.55+911.734L1684.55+928.17C1684.55+957.27+1703.5+975.543+1733.57+975.543ZM1733.57+886.017C1747.78+886.017+1756.58+896.265+1756.58+912.798L1756.58+927.106C1756.58+943.542+1747.78+953.886+1733.57+953.886C1719.36+953.886+1710.56+943.542+1710.56+927.106L1710.56+912.798C1710.56+896.265+1719.36+886.017+1733.57+886.017Z" opacity="1" fill="#ffffff"/>
<path d="M1808.5+973.222L1834.89+973.222L1834.89+911.637C1834.89+896.845+1843.69+887.467+1857.22+887.467C1870.66+887.467+1876.94+894.912+1876.94+910.574L1876.94+973.222L1903.43+973.222L1903.43+904.29C1903.43+878.283+1891.06+864.361+1867.86+864.361C1852.48+864.361+1840.98+871.612+1835.76+884.47L1834.12+884.47L1834.12+866.585L1808.5+866.585L1808.5+973.222Z" opacity="1" fill="#ffffff"/>
<path d="M1121.49+1168.02L1146.05+1219.36L1176.98+1219.36L1149.04+1163.48C1164.22+1157.48+1173.79+1142.4+1173.79+1124.32C1173.79+1096.67+1155.23+1079.85+1124.87+1079.85L1074.21+1079.85L1074.21+1219.36L1101.57+1219.36L1101.57+1168.02L1121.49+1168.02ZM1101.57+1102.28L1121.3+1102.28C1136.76+1102.28+1145.85+1110.59+1145.85+1124.42C1145.85+1138.53+1136.57+1146.94+1121.01+1146.94L1101.57+1146.94L1101.57+1102.28Z" opacity="1" fill="#ffffff"/>
<path d="M1243.98+1221.68C1274.05+1221.68+1293+1203.4+1293+1174.3L1293+1157.87C1293+1128.77+1274.05+1110.49+1243.98+1110.49C1213.92+1110.49+1194.97+1128.77+1194.97+1157.87L1194.97+1174.3C1194.97+1203.4+1213.92+1221.68+1243.98+1221.68ZM1243.98+1132.15C1258.19+1132.15+1266.99+1142.4+1266.99+1158.93L1266.99+1173.24C1266.99+1189.68+1258.19+1200.02+1243.98+1200.02C1229.77+1200.02+1220.97+1189.68+1220.97+1173.24L1220.97+1158.93C1220.97+1142.4+1229.77+1132.15+1243.98+1132.15Z" opacity="1" fill="#ffffff"/>
<path d="M1413.85+1112.72L1387.46+1112.72L1387.46+1174.4C1387.46+1189.1+1378.66+1198.47+1365.12+1198.47C1351.68+1198.47+1345.4+1191.03+1345.4+1175.37L1345.4+1112.72L1318.91+1112.72L1318.91+1181.75C1318.91+1207.75+1331.28+1221.68+1354.49+1221.68C1369.86+1221.68+1381.36+1214.33+1386.59+1201.47L1388.23+1201.47L1388.23+1219.36L1413.85+1219.36L1413.85+1112.72Z" opacity="1" fill="#ffffff"/>
<path d="M1441.31+1219.36L1467.7+1219.36L1467.7+1157.77C1467.7+1142.98+1476.5+1133.6+1490.03+1133.6C1503.47+1133.6+1509.76+1141.05+1509.76+1156.71L1509.76+1219.36L1536.25+1219.36L1536.25+1150.42C1536.25+1124.42+1523.87+1110.49+1500.67+1110.49C1485.3+1110.49+1473.79+1117.75+1468.57+1130.6L1466.93+1130.6L1466.93+1112.72L1441.31+1112.72L1441.31+1219.36Z" opacity="1" fill="#ffffff"/>
<path d="M1599.38+1221C1615.04+1221+1625.58+1213.94+1629.25+1200.99L1631.28+1200.99L1631.28+1219.36L1658.55+1219.36L1658.55+1072.11L1630.89+1072.11L1630.89+1130.89L1628.96+1130.89C1625.38+1118.13+1614.75+1110.98+1599.38+1110.98C1575.01+1110.98+1560.51+1127.8+1560.51+1156.8L1560.51+1175.17C1560.51+1204.18+1575.01+1221+1599.38+1221ZM1609.63+1198.09C1595.9+1198.09+1587.49+1189.1+1587.49+1174.4L1587.49+1156.8C1587.49+1142.11+1595.9+1133.21+1609.63+1133.21C1623.26+1133.21+1631.57+1142.11+1631.57+1156.8L1631.57+1174.4C1631.57+1189.1+1623.26+1198.09+1609.63+1198.09Z" opacity="1" fill="#ffffff"/>
<path d="M1719.16+1221.1C1733.09+1221.1+1744.3+1215.2+1749.52+1205.14L1751.84+1205.14L1751.84+1219.36L1776.98+1219.36L1776.98+1147.04C1776.98+1123.74+1761.61+1110.69+1734.25+1110.69C1708.92+1110.69+1691.42+1123.16+1689.48+1142.5L1715.2+1142.5C1717.42+1135.83+1724.29+1131.76+1733.47+1131.76C1744.4+1131.76+1750.78+1137.18+1750.78+1146.46L1750.78+1154.97L1725.83+1156.51C1699.54+1158.35+1685.52+1169.66+1685.52+1188.9C1685.52+1208.14+1699.05+1221.1+1719.16+1221.1ZM1728.25+1199.92C1718+1199.92+1711.62+1194.9+1711.62+1186.97C1711.62+1178.75+1717.91+1174.01+1730.28+1173.24L1750.78+1171.98L1750.78+1179.72C1750.78+1191.61+1741.4+1199.92+1728.25+1199.92Z" opacity="1" fill="#ffffff"/>
<path d="M1867.76+1221C1892.22+1221+1906.63+1204.18+1906.63+1175.17L1906.63+1156.8C1906.63+1127.8+1892.22+1110.98+1867.76+1110.98C1852.48+1110.98+1841.85+1118.13+1838.27+1130.89L1836.24+1130.89L1836.24+1072.11L1808.69+1072.11L1808.69+1219.36L1835.95+1219.36L1835.95+1200.99L1837.89+1200.99C1841.66+1213.94+1852.19+1221+1867.76+1221ZM1857.61+1198.09C1843.98+1198.09+1835.57+1189.1+1835.57+1174.4L1835.57+1156.8C1835.57+1142.11+1843.98+1133.21+1857.61+1133.21C1871.34+1133.21+1879.65+1142.11+1879.65+1156.8L1879.65+1174.4C1879.65+1189.1+1871.34+1198.09+1857.61+1198.09Z" opacity="1" fill="#ffffff"/>
<path d="M1978.36+1221.68C2008.43+1221.68+2027.38+1203.4+2027.38+1174.3L2027.38+1157.87C2027.38+1128.77+2008.43+1110.49+1978.36+1110.49C1948.29+1110.49+1929.34+1128.77+1929.34+1157.87L1929.34+1174.3C1929.34+1203.4+1948.29+1221.68+1978.36+1221.68ZM1978.36+1132.15C1992.57+1132.15+2001.37+1142.4+2001.37+1158.93L2001.37+1173.24C2001.37+1189.68+1992.57+1200.02+1978.36+1200.02C1964.15+1200.02+1955.35+1189.68+1955.35+1173.24L1955.35+1158.93C1955.35+1142.4+1964.15+1132.15+1978.36+1132.15Z" opacity="1" fill="#ffffff"/>
<path d="M2148.23+1112.72L2121.83+1112.72L2121.83+1174.4C2121.83+1189.1+2113.04+1198.47+2099.5+1198.47C2086.06+1198.47+2079.78+1191.03+2079.78+1175.37L2079.78+1112.72L2053.29+1112.72L2053.29+1181.75C2053.29+1207.75+2065.66+1221.68+2088.87+1221.68C2104.24+1221.68+2115.74+1214.33+2120.96+1201.47L2122.61+1201.47L2122.61+1219.36L2148.23+1219.36L2148.23+1112.72Z" opacity="1" fill="#ffffff"/>
<path d="M2201.11+1082.26L2201.11+1113.78L2173.36+1113.78L2173.36+1134.95L2201.11+1134.95L2201.11+1185.62C2201.11+1210.37+2212.23+1219.55+2241.23+1219.55C2243.36+1219.55+2264.44+1219.36+2265.5+1219.16L2265.5+1198.28C2264.34+1198.38+2245.87+1198.47+2243.36+1198.47C2233.21+1198.47+2227.51+1193.93+2227.51+1185.91L2227.51+1134.95L2266.76+1134.95L2266.76+1113.78L2227.02+1113.78L2227.02+1082.26L2201.11+1082.26Z" opacity="1" fill="#ffffff"/>
<path d="M2345.55+1221.19C2357.25+1221.19+2366.82+1211.33+2366.82+1199.44C2366.82+1187.45+2357.25+1177.59+2345.55+1177.59C2333.85+1177.59+2324.28+1187.45+2324.28+1199.44C2324.28+1211.33+2333.85+1221.19+2345.55+1221.19Z" opacity="1" fill="#ffffff"/>
<path d="M1123.13+1438.13L1121.88+1438.13L1093.16+1325.98L1063.48+1325.98L1105.34+1465.49L1137.83+1465.49L1179.69+1325.98L1152.23+1325.98L1123.13+1438.13Z" opacity="1" fill="#ffffff"/>
<path d="M1267.09+1435.52C1265.16+1442.48+1256.74+1447.31+1246.11+1447.31C1232.28+1447.31+1223.29+1438.23+1223.29+1424.3L1223.29+1418.5L1292.03+1418.5L1292.03+1403.81C1292.03+1375.19+1273.95+1356.63+1245.72+1356.63C1216.72+1356.63+1197.38+1375.09+1197.38+1403.04L1197.38+1420.15C1197.38+1450.41+1215.17+1467.81+1246.21+1467.81C1270.96+1467.81+1289.81+1454.37+1292.03+1435.52L1267.09+1435.52ZM1245.24+1377.12C1258.58+1377.12+1266.51+1386.31+1266.51+1401.58L1223.29+1401.58C1223.29+1386.31+1231.51+1377.12+1245.24+1377.12Z" opacity="1" fill="#ffffff"/>
<path d="M1318.91+1465.49L1345.3+1465.49L1345.3+1403.91C1345.3+1389.11+1354.1+1379.74+1367.64+1379.74C1381.07+1379.74+1387.36+1387.18+1387.36+1402.84L1387.36+1465.49L1413.85+1465.49L1413.85+1396.56C1413.85+1370.55+1401.47+1356.63+1378.27+1356.63C1362.9+1356.63+1351.39+1363.88+1346.17+1376.74L1344.53+1376.74L1344.53+1358.85L1318.91+1358.85L1318.91+1465.49Z" opacity="1" fill="#ffffff"/>
<path d="M1466.73+1328.4L1466.73+1359.92L1438.99+1359.92L1438.99+1381.09L1466.73+1381.09L1466.73+1431.75C1466.73+1456.5+1477.85+1465.68+1506.85+1465.68C1508.98+1465.68+1530.06+1465.49+1531.12+1465.3L1531.12+1444.41C1529.96+1444.51+1511.5+1444.61+1508.98+1444.61C1498.83+1444.61+1493.13+1440.06+1493.13+1432.04L1493.13+1381.09L1532.38+1381.09L1532.38+1359.92L1492.64+1359.92L1492.64+1328.4L1466.73+1328.4Z" opacity="1" fill="#ffffff"/>
<path d="M1658.64+1358.85L1632.25+1358.85L1632.25+1420.53C1632.25+1435.23+1623.45+1444.61+1609.92+1444.61C1596.48+1444.61+1590.19+1437.16+1590.19+1421.5L1590.19+1358.85L1563.7+1358.85L1563.7+1427.88C1563.7+1453.89+1576.08+1467.81+1599.28+1467.81C1614.65+1467.81+1626.16+1460.46+1631.38+1447.6L1633.02+1447.6L1633.02+1465.49L1658.64+1465.49L1658.64+1358.85Z" opacity="1" fill="#ffffff"/>
<path d="M1731.54+1418.21C1731.54+1395.3+1743.82+1383.89+1768.95+1383.89C1774.95+1383.89+1781.91+1385.15+1786.74+1386.99L1786.74+1358.27C1782.97+1356.82+1777.56+1356.05+1771.56+1356.05C1751.45+1356.05+1740.53+1365.04+1735.89+1386.21L1731.73+1386.21L1731.73+1358.85L1683.97+1358.85L1683.97+1378.38L1706.21+1378.38L1706.21+1446.06L1685.91+1446.06L1685.91+1465.49L1762.48+1465.49L1762.48+1446.06L1731.54+1446.06L1731.54+1418.21Z" opacity="1" fill="#ffffff"/>
<path d="M1879.07+1435.52C1877.14+1442.48+1868.73+1447.31+1858.09+1447.31C1844.27+1447.31+1835.28+1438.23+1835.28+1424.3L1835.28+1418.5L1904.01+1418.5L1904.01+1403.81C1904.01+1375.19+1885.94+1356.63+1857.71+1356.63C1828.7+1356.63+1809.37+1375.09+1809.37+1403.04L1809.37+1420.15C1809.37+1450.41+1827.15+1467.81+1858.19+1467.81C1882.94+1467.81+1901.79+1454.37+1904.01+1435.52L1879.07+1435.52ZM1857.22+1377.12C1870.56+1377.12+1878.49+1386.31+1878.49+1401.58L1835.28+1401.58C1835.28+1386.31+1843.49+1377.12+1857.22+1377.12Z" opacity="1" fill="#ffffff"/>
<path d="M1935.24+1389.98C1935.24+1406.42+1945.39+1416.86+1965.41+1421.21L1981.36+1424.59C1992.57+1427.01+1996.63+1429.91+1996.63+1435.91C1996.63+1442.87+1989.67+1447.41+1978.84+1447.41C1967.82+1447.41+1960.67+1443.35+1959.03+1436L1932.92+1436C1934.37+1456.02+1951.19+1467.71+1978.46+1467.71C2006.21+1467.71+2023.8+1454.08+2023.8+1432.52C2023.8+1416.28+2014.23+1407.1+1992.67+1402.65L1976.14+1399.26C1965.79+1397.14+1961.35+1393.66+1961.35+1387.86C1961.35+1381.09+1968.02+1376.54+1978.07+1376.54C1987.93+1376.54+1994.89+1380.9+1996.15+1387.95L2021.09+1387.95C2019.84+1367.94+2004.08+1356.34+1978.26+1356.34C1951.87+1356.34+1935.24+1369.29+1935.24+1389.98Z" opacity="1" fill="#ffffff"/>
<path d="M2073.3+1395.78C2073.3+1431.65+2084.23+1462.98+2104.72+1485.6L2131.89+1485.6C2111.01+1453.99+2102.59+1428.46+2102.59+1395.78C2102.59+1363.01+2111.01+1337.39+2131.89+1305.78L2104.72+1305.78C2084.23+1328.4+2073.3+1359.82+2073.3+1395.78Z" opacity="1" fill="#ffffff"/>
<path d="M2250.61+1395.78C2250.61+1359.82+2239.69+1328.4+2219.19+1305.78L2192.02+1305.78C2212.91+1337.39+2221.32+1363.01+2221.32+1395.78C2221.32+1428.46+2212.91+1453.99+2192.02+1485.6L2219.19+1485.6C2239.69+1462.98+2250.61+1431.65+2250.61+1395.78Z" opacity="1" fill="#ffffff"/>
</g>
<path d="M930.311+818.416L967.621+818.416L967.621+1469.8L930.311+1469.8L930.311+818.416Z" opacity="1" fill="#ffffff"/>
</g>
</svg>
